<svg viewBox="0 0 70 50" width="70px" height="50px" xmlns="http://www.w3.org/2000/svg">
	<!-- <rect width="100%" height="100%" fill="none" stroke="blue"/> -->
	<g transform="translate(0 0) scale(0.17)" fill="currentColor" stroke="none">
		<path d="M 354.045 35.855 C 354.045 25.491 360.415 20.308 373.156 20.308 C 386.112 20.308 392.59 25.491 392.59 35.855 L 392.59 265.5 C 392.59 275.865 386.112 281.048 373.156 281.048 C 360.415 281.048 354.045 275.865 354.045 265.5 L 354.045 35.855 Z" />
		<path d="M 263.226 265.481 C 263.226 275.847 256.878 281.032 244.182 281.032 C 231.698 281.032 225.456 275.847 225.456 265.481 L 225.456 35.8 C 225.456 25.432 231.698 20.251 244.182 20.251 C 256.878 20.251 263.226 25.432 263.226 35.8 L 263.226 265.481 Z" />
		<path d="M 171.226 40.78 C 171.226 30.623 177.467 25.545 189.952 25.545 C 202.648 25.545 208.996 30.623 208.996 40.78 L 208.996 265.813 C 208.996 275.969 202.648 281.048 189.952 281.048 C 177.467 281.048 171.226 275.969 171.226 265.813 L 171.226 40.78 Z" />
		<path d="M 76.536 20.308 C 76.536 10.009 82.777 4.86 95.262 4.86 C 107.958 4.86 114.306 10.009 114.306 20.308 L 114.306 248.492 C 114.306 258.791 107.958 263.942 95.262 263.942 C 82.777 263.942 76.536 258.791 76.536 248.492 L 76.536 20.308 Z" transform="rotate(36 0 0) translate(60.5 -80)" />
		<path d="M 208.591 38.85 C 208.591 44.209 205.476 48.727 199.252 52.403 C 193.023 56.077 185.371 57.914 176.296 57.914 C 167.473 57.914 159.95 56.077 153.723 52.403 C 147.496 48.727 144.384 44.209 144.384 38.85 C 144.384 33.489 147.496 28.971 153.723 25.296 C 159.95 21.619 167.473 19.783 176.296 19.783 C 185.371 19.783 193.023 21.619 199.252 25.296 C 205.476 28.971 208.591 33.489 208.591 38.85 Z" />
		<path d="M 162.339 169.721 C 162.339 177.128 159.8 183.369 154.721 188.448 C 149.643 193.526 143.4 196.065 135.995 196.065 C 128.8 196.065 122.664 193.526 117.586 188.448 C 112.508 183.369 109.969 177.128 109.969 169.721 C 109.969 162.315 112.508 156.074 117.586 150.995 C 122.664 145.917 128.8 143.378 135.995 143.378 C 143.4 143.378 149.643 145.917 154.721 150.995 C 159.8 156.074 162.339 162.315 162.339 169.721 Z" fill="rgb(20,250,100)">
		</path>
		<path d="M 334.684 159.644 C 334.684 167.051 332.145 173.292 327.067 178.371 C 321.988 183.449 315.745 185.988 308.34 185.988 C 301.145 185.988 295.01 183.449 289.932 178.371 C 284.853 173.292 282.314 167.051 282.314 159.644 C 282.314 152.238 284.853 145.996 289.932 140.918 C 295.01 135.84 301.145 133.3 308.34 133.3 C 315.745 133.3 321.988 135.84 327.067 140.918 C 332.145 145.996 334.684 152.238 334.684 159.644 Z" fill="rgb(20,250,100)">
		</path>
	</g>
</svg>